<mxfile host="app.diagrams.net" modified="2023-09-24T08:04:06.623Z" agent="Mozilla/5.0 (Windows NT 10.0; Win64; x64) AppleWebKit/537.36 (KHTML, like Gecko) Chrome/116.0.0.0 Safari/537.36" version="21.8.1" etag="v7no6F9jrkQkJVxVi7sO" type="github">
  <diagram name="Trang-1" id="Dv2TIqnv5WKdAixcYChp">
    <mxGraphModel>
      <root>
        <mxCell id="0" />
        <mxCell id="1" parent="0" />
      </root>
    </mxGraphModel>
  </diagram>
</mxfile>
